<?xml version="1.0" encoding="UTF-8"?>
<svg id="Calque_1" data-name="Calque 1" xmlns="http://www.w3.org/2000/svg" viewBox="0 0 150 150">
  <defs>
    <style>
      .cls-1 {
        fill: #fff;
      }
    </style>
  </defs>
  <path class="cls-1" d="M148.29,79.71v68.58h-68.58c.29-.17.84-.2,1.32-.24,35.61-2.83,64.17-31.41,67.01-67.02.04-.49.08-1.03.24-1.32Z"/>
  <path d="M148.29,70.57v9.14c-.17.29-.2.84-.24,1.32-2.85,35.61-31.4,64.18-67.01,67.02-.49.04-1.04.08-1.32.24h-9.14c-17.33-1.36-33.46-8.36-45.95-20.32C-5.93,98.73-5.49,49.99,25.66,21.34c28.14-25.88,71.4-25.9,99.56.54,13.76,12.92,21.59,30.16,23.07,48.69ZM67.78,72.3c7.35-2.34,8.15-9,6.45-15.34-1.06-3.22-3.15-5.69-6.12-7.32-2.36-1.08-4.84-1.85-7.56-1.85h-28.81s0,53.82,0,53.82h28.53c3.2,0,6.1-.9,8.9-2.18,4.05-2.09,6.7-5.76,7.4-10.3,1.02-6.65-.37-15.82-8.78-16.83ZM110.29,50.95h-22.2v6.64h22.2v-6.64ZM97.46,93.99c-4.45-.77-7.23-4.62-6.87-9.15h27.83c.81-9.93-2.38-20.12-12.89-22.69-8.48-1.87-18.12-.03-22.93,7.88-6.74,11.06-4.07,27.53,8.74,31.47,5.98,1.84,12.46,1.75,18.24-.42,5.44-2.04,8.76-6.92,8.44-12.65h-9.34c-.48,5.5-6.98,6.3-11.22,5.57Z"/>
  <g>
    <rect class="cls-1" x="88.08" y="50.95" width="22.2" height="6.64"/>
    <g>
      <path class="cls-1" d="M67.78,72.3c8.41,1.01,9.81,10.18,8.78,16.83-.7,4.53-3.36,8.21-7.4,10.3-2.8,1.28-5.7,2.18-8.9,2.18h-28.53s0-53.83,0-53.83h28.81c2.73.01,5.2.78,7.56,1.86,2.97,1.62,5.06,4.1,6.12,7.32,1.71,6.34.91,13-6.45,15.34ZM63.2,60.24c-.61-1.59-1.74-2.75-3.47-2.89h-15.67s.03,12.03.03,12.03h15.31c4.59-.19,4.48-5.99,3.8-9.14ZM65.17,87.54c.4-2.09.3-4.16-.31-6.07-.9-2.32-2.91-3.81-5.44-3.81h-15.35s0,14.41,0,14.41l15.86-.02c2.62-.39,4.6-1.81,5.23-4.5Z"/>
      <path d="M65.17,87.54c-.63,2.7-2.61,4.11-5.23,4.5l-15.86.02v-14.4s15.35-.01,15.35-.01c2.53,0,4.54,1.49,5.44,3.81.61,1.91.7,3.98.31,6.07Z"/>
      <path d="M63.2,60.24c.68,3.15.78,8.95-3.8,9.13h-15.31s-.03-12-.03-12h15.67c1.73.12,2.86,1.29,3.47,2.88Z"/>
    </g>
    <g>
      <path class="cls-1" d="M97.46,93.99c4.24.74,10.74-.07,11.22-5.57h9.34c.32,5.73-3,10.61-8.44,12.65-5.78,2.17-12.26,2.26-18.24.42-12.81-3.94-15.48-20.4-8.74-31.47,4.82-7.9,14.45-9.74,22.93-7.88,10.51,2.57,13.7,12.76,12.89,22.68h-27.83c-.36,4.54,2.42,8.38,6.87,9.16ZM108.05,77.65c-.06-3.13-1.3-5.59-3.66-7.21-3.15-1.59-7.04-1.5-9.97.56-2.22,1.56-3.56,4-3.94,6.66h17.57Z"/>
      <path d="M108.05,77.65h-17.57c.38-2.65,1.72-5.09,3.94-6.65,2.93-2.06,6.82-2.14,9.97-.56,2.37,1.62,3.6,4.07,3.66,7.21Z"/>
    </g>
  </g>
</svg>