<?xml version="1.0" encoding="UTF-8"?>
<svg id="Calque_1" data-name="Calque 1" xmlns="http://www.w3.org/2000/svg" viewBox="0 0 150 150">
  <defs>
    <style>
      .cls-1 {
        fill: #1d1d1b;
      }
    </style>
  </defs>
  <path class="cls-1" d="M80.87,52.87v4.63c0,3.24-2.65,5.88-5.88,5.88s-5.88-2.65-5.88-5.88v-4.63c-22.95,1.26-30.42,15.02-32.09,18.95v27.7c0,19.28,15.77,35.05,35.05,35.05h5.89c19.28,0,35.05-15.77,35.05-35.05v-27.38c-1.39-3.44-8.59-17.93-32.12-19.26Z"/>
  <path class="cls-1" d="M77.43,32.8c2.02.93,3.44,2.98,3.44,5.34v9.67c6.75.57,21.96,3.27,32.12,15.92v-13.25c0-19.28-15.77-35.05-35.05-35.05h-.52v17.36Z"/>
  <path class="cls-1" d="M69.1,47.81v-9.67c0-2.33,1.37-4.34,3.34-5.29V15.43h-.38c-19.28,0-35.05,15.77-35.05,35.05v13.09c10.22-12.57,25.43-15.22,32.09-15.77Z"/>
</svg>