<?xml version="1.0" encoding="UTF-8"?>
<svg id="Calque_1" data-name="Calque 1" xmlns="http://www.w3.org/2000/svg" viewBox="0 0 150 150">
  <path d="M80.85,52.95v4.61c0,3.22-2.64,5.86-5.86,5.86s-5.86-2.64-5.86-5.86v-4.61c-22.87,1.25-30.31,14.97-31.98,18.88v27.6c0,19.21,15.71,34.92,34.92,34.92h5.87c19.21,0,34.92-15.71,34.92-34.92v-27.28c-1.38-3.43-8.56-17.87-32.01-19.19Z"/>
  <path d="M77.42,32.95c2.02.93,3.43,2.97,3.43,5.32v9.64c6.72.57,21.88,3.26,32.01,15.86v-13.2c0-19.21-15.71-34.92-34.92-34.92h-.51v17.3Z"/>
  <path d="M69.12,47.91v-9.63c0-2.32,1.37-4.33,3.33-5.28V15.65h-.38c-19.21,0-34.92,15.71-34.92,34.92v13.05c10.18-12.52,25.33-15.16,31.98-15.71Z"/>
</svg>