<?xml version="1.0" encoding="UTF-8"?>
<svg id="Calque_1" data-name="Calque 1" xmlns="http://www.w3.org/2000/svg" viewBox="0 0 150 150">
  <defs>
    <style>
      .cls-1 {
        fill: #fff;
      }
    </style>
  </defs>
  <path d="M147.89,75c0,40.24-32.63,72.86-72.89,72.86S2.11,115.24,2.11,75,34.74,2.14,75,2.14s72.89,32.62,72.89,72.86ZM95.05,117.46c13.6,0,22.55-11.58,22.46-24.37l-.29-38.87c-.09-11.88-10.71-21.28-22.43-21.26l-40.25.08c-11.4.02-21.74,9.7-21.75,21.18l-.05,41.54c-.01,11.66,10.12,21.69,21.8,21.7l40.51.02Z"/>
  <g>
    <path class="cls-1" d="M95.05,117.46l-40.51-.02c-11.69,0-21.82-10.03-21.8-21.7l.05-41.54c.01-11.48,10.36-21.15,21.75-21.18l40.25-.08c11.72-.02,22.34,9.38,22.43,21.26l.29,38.87c.1,12.79-8.85,24.38-22.46,24.37ZM94.09,110.13c8.47,0,15.9-6.59,15.92-15.3l.07-38.54c.02-9.51-7.56-16.05-16.67-16.02l-38.15.12c-8.26.03-15.26,7.05-15.26,15.3v39.07c.02,8.62,7.35,15.37,15.83,15.37h38.26Z"/>
    <path d="M94.09,110.13h-38.26c-8.49,0-15.81-6.74-15.82-15.36v-39.07c-.02-8.25,6.98-15.27,15.24-15.3l38.15-.12c9.11-.03,16.69,6.51,16.67,16.02l-.07,38.54c-.02,8.71-7.45,15.3-15.92,15.3ZM102.64,52.56c0-2.7-2.19-4.9-4.9-4.9s-4.9,2.19-4.9,4.9,2.19,4.9,4.9,4.9,4.9-2.19,4.9-4.9ZM98.18,75.24c0-12.75-10.34-23.09-23.1-23.09s-23.1,10.34-23.1,23.09,10.34,23.09,23.1,23.09,23.1-10.34,23.1-23.09Z"/>
    <path class="cls-1" d="M98.18,75.24c0,12.75-10.34,23.09-23.1,23.09s-23.1-10.34-23.1-23.09,10.34-23.09,23.1-23.09,23.1,10.34,23.1,23.09ZM90.17,75.31c0-8.38-6.79-15.17-15.17-15.17s-15.17,6.79-15.17,15.17,6.79,15.17,15.17,15.17,15.17-6.79,15.17-15.17Z"/>
    <circle class="cls-1" cx="97.74" cy="52.56" r="4.9"/>
    <ellipse cx="75" cy="75.31" rx="15.17" ry="15.17"/>
  </g>
</svg>