<?xml version="1.0" encoding="UTF-8"?>
<svg id="Calque_1" data-name="Calque 1" xmlns="http://www.w3.org/2000/svg" viewBox="0 0 150 150">
  <defs>
    <style>
      .cls-1 {
        fill: #fff;
      }
    </style>
  </defs>
  <path d="M148.01,75.04c0,40.32-32.7,73.01-73.03,73.01S1.94,115.36,1.94,75.04,34.64,2.04,74.98,2.04s73.03,32.69,73.03,73.01ZM54.74,46.09c0-4.84-3.93-8.76-8.77-8.76s-8.77,3.92-8.77,8.76,3.93,8.76,8.77,8.76,8.77-3.92,8.77-8.76ZM88.42,74.86c4.31.83,7.44,4.75,7.45,8.95l.11,26.99,14.44-.05-.28-34.68c-.08-9.42-9.31-14.99-17.82-14.81-6.37.13-11.33,1.41-15.83,6.75l-.49-6.08-14.19.03v48.67s14.41.21,14.41.21v-25.82c.02-6.38,5.5-11.46,12.19-10.16ZM38.6,61.91l-.03,48.93h14.8s.03-48.92.03-48.92h-14.8Z"/>
  <g>
    <path class="cls-1" d="M88.42,74.86c-6.69-1.3-12.18,3.78-12.18,10.16v25.82s-14.43-.21-14.43-.21v-48.67s14.19-.03,14.19-.03l.49,6.08c4.5-5.34,9.45-6.61,15.83-6.75,8.51-.18,17.74,5.39,17.82,14.81l.28,34.68-14.44.05-.11-26.99c-.02-4.2-3.15-8.11-7.45-8.95Z"/>
    <rect class="cls-1" x="21.52" y="78.98" width="48.93" height="14.8" transform="translate(-40.42 132.32) rotate(-89.97)"/>
    <circle class="cls-1" cx="45.97" cy="46.09" r="8.77"/>
  </g>
</svg>