<?xml version="1.0" encoding="UTF-8"?>
<svg id="Calque_1" data-name="Calque 1" xmlns="http://www.w3.org/2000/svg" viewBox="0 0 150 150">
  <path d="M56.32,89.95c9.27,13.52,10.35,14.66,12.42,35.54.42,4.21,3.41,6.59,6.33,6.07,3.16-.57,4.71-4.05,4.89-8.34.9-21.37,3.22-45.4,10.77-64.46,4.12,2.9,9.14,4.6,14.56,4.6,14.01,0,25.36-11.35,25.36-25.36s-11.35-25.36-25.36-25.36-25.36,11.35-25.36,25.36c0,4.06.96,7.89,2.65,11.29-8.69,18.38-11.04,40.27-11.04,40.27,0,0-17.81-32.08-47.41-21.73-20.09,7.02-5.1,15.25,2.3,11.78,15.49-7.26,29.89,10.35,29.89,10.35Z"/>
</svg>