<?xml version="1.0" encoding="UTF-8"?>
<svg id="Calque_1" data-name="Calque 1" xmlns="http://www.w3.org/2000/svg" viewBox="0 0 150 150">
  <path d="M119.77,15.92l-89.31-.13-14.77,28.51.16,89.91,118.25-.1.23-88.75-14.55-29.44ZM114.57,24.47l8.23,16.72-23.22.36-2.63-17.32,17.62.23ZM70.05,24.51l18.21-.25,2.67,17.15h-23.68s2.8-16.91,2.8-16.91ZM91.96,50.02l-.34,30.49-12.41-10.3-12.37,10.24-.32-30.4,25.44-.02ZM35.39,24.19l25.87.33-2.46,16.99-31.74-.18,8.33-17.13ZM125.69,125.81H24.18s0-75.76,0-75.76l33.83-.02v40.03c.02,1.65,1.62,6.27,3.06,6.01,1.44-.26,4.53-1.65,5.85-2.93l12.17-11.77,13.17,12.84c.95.93,4.97,2.22,5.76,1.46.8-.77,2.22-3.29,2.22-4.5l.27-40.99,25.18-.08v75.72Z"/>
</svg>