<?xml version="1.0" encoding="UTF-8"?>
<svg id="Calque_1" data-name="Calque 1" xmlns="http://www.w3.org/2000/svg" viewBox="0 0 150 150">
  <defs>
    <style>
      .cls-1 {
        fill: #fff;
      }
    </style>
  </defs>
  <path d="M134.09,134.11l-118.25.1-.16-89.91,14.77-28.51,89.31.13,14.55,29.44-.23,88.75ZM58.8,41.51l2.46-16.99-25.87-.33-8.33,17.13,31.74.18ZM90.92,41.42l-2.67-17.15-18.21.25-2.8,16.92h23.68ZM122.8,41.19l-8.23-16.72-17.62-.23,2.63,17.32,23.22-.36ZM92.27,94.21l-13.17-12.84-12.17,11.77c-1.32,1.28-4.41,2.67-5.85,2.93s-3.04-4.36-3.04-6.01v-40.03s-33.84.02-33.84.02v75.75s101.51,0,101.51,0V50.09s-25.17.08-25.17.08l-.27,40.99c0,1.21-1.43,3.73-2.22,4.5s-4.81-.53-5.76-1.46ZM91.62,80.51l.34-30.49-25.44.02.32,30.4,12.37-10.24,12.41,10.31Z"/>
  <path class="cls-1" d="M92.27,94.21c.95.93,4.97,2.22,5.76,1.46s2.22-3.29,2.22-4.5l.27-40.99,25.18-.08v75.72s-101.51,0-101.51,0V50.06s33.83-.02,33.83-.02v40.03c.02,1.65,1.62,6.27,3.06,6.01s4.53-1.65,5.85-2.93l12.17-11.77,13.17,12.84ZM62.5,117.43c1.8,0,4.86-4.37,3.98-5.64-.67-.96-3.38-2.86-4.89-2.87l-24.48-.07c-1.57,0-4.95,3.22-4.62,4.7.33,1.48,3.26,3.93,4.94,3.93l25.08-.06Z"/>
  <polygon class="cls-1" points="91.62 80.51 79.22 70.2 66.85 80.44 66.52 50.04 91.96 50.02 91.62 80.51"/>
  <polygon class="cls-1" points="58.8 41.51 27.06 41.32 35.39 24.19 61.26 24.52 58.8 41.51"/>
  <polygon class="cls-1" points="90.92 41.42 67.24 41.43 70.05 24.51 88.26 24.27 90.92 41.42"/>
  <polygon class="cls-1" points="122.8 41.19 99.58 41.55 96.96 24.24 114.57 24.47 122.8 41.19"/>
  <path d="M62.5,117.43l-25.08.06c-1.68,0-4.61-2.45-4.94-3.93-.33-1.48,3.05-4.71,4.62-4.7l24.48.07c1.52,0,4.23,1.91,4.89,2.87.88,1.27-2.18,5.63-3.98,5.64Z"/>
</svg>