<?xml version="1.0" encoding="UTF-8"?>
<svg id="Calque_1" data-name="Calque 1" xmlns="http://www.w3.org/2000/svg" viewBox="0 0 150 150">
  <path d="M77.42,35.38c0,.87-1.36,2.58-2.11,2.67-.94.11-2.82-1.63-2.82-2.59l.02-17.21c0-.92,1.33-2.43,2.05-2.61.9-.23,2.85,1.44,2.85,2.35v17.39Z"/>
  <path d="M59.84,35.6c.43.86-.55,3.54-1.42,3.58s-2.68-.83-3.09-1.66l-7.55-15.3c-.49-.98.44-3.08,1.19-3.41s2.74.53,3.17,1.39l7.71,15.4Z"/>
  <path d="M94.48,37.61c-.41.82-2.37,1.66-3.07,1.58-.88-.1-1.84-2.56-1.39-3.47l7.77-15.61c.36-.72,2.42-1.62,3.14-1.29.87.39,1.62,2.62,1.18,3.5l-7.63,15.3Z"/>
  <path d="M42.5,49.25l-15.15-8.71c-.81-.47-1.46-2.48-1.21-3.24.3-.91,2.63-1.59,3.65-1l14.79,8.64c.7.41,1.27,2.28,1.34,2.91.09.83-2.59,1.88-3.42,1.4Z"/>
  <path d="M107.98,48.9c-.87.5-3.04.31-3.6-.29s.04-3.2.92-3.71l15.26-8.8c.8-.46,3.12.48,3.28,1.26s-.48,2.67-1.28,3.13l-14.57,8.41Z"/>
  <path d="M116.56,134.39l-83.66-.02c-7.29,0-14.48-6.29-14.49-13.69l-.05-44.78c-.01-9.74,8.98-15.49,18.17-14.54,2.6.27,7.77.55,9.52-.91,6.89-5.76,6.77-14.99,17.24-14.99h23.33c4.59.01,7.94,2.1,10.35,5.94,5.88,9.39,5.74,10.82,17.22,9.95,9.69-.73,17.45,5.76,17.45,15.46l.02,42.04c0,8.18-6.04,15.54-15.09,15.54ZM83.67,58.39c.62,0,1.99-2,1.6-2.4s-1.73-1.4-2.32-1.4l-16.16-.04c-.75,0-2.19,1.34-2.13,2.05s1.58,1.94,2.32,1.94l16.68-.14ZM101.5,97.88c0-14.67-11.89-26.56-26.56-26.56s-26.56,11.89-26.56,26.56,11.89,26.56,26.56,26.56,26.56-11.89,26.56-26.56ZM36.31,75.95c0-1.91-1.55-3.46-3.46-3.46s-3.46,1.55-3.46,3.46,1.55,3.46,3.46,3.46,3.46-1.55,3.46-3.46Z"/>
  <circle cx="74.95" cy="97.88" r="20.2"/>
</svg>