<?xml version="1.0" encoding="UTF-8"?>
<svg id="Calque_1" data-name="Calque 1" xmlns="http://www.w3.org/2000/svg" viewBox="0 0 150 150">
  <defs>
    <style>
      .cls-1 {
        fill: #fff;
      }
    </style>
  </defs>
  <path d="M104.94,115.97l-5.43,16.04c-16.05,2.39-30.94,3.51-47.33-.18-3.67-.83-5.13-9.64-5.95-15.06-5.12-4.12-24.31.9-27.53-12.03-3.76-15.11-5.07-31.37,2.58-46.12,4.27-5.05,17.31-4.9,24.26-5.88.76-11.78,1.53-22.25,3.93-33.57,18.39-4.47,34.33-5.22,52.06.95l3.11,32.51c5.95.85,15.77,1.12,21.33,4.17,10.47,5.74,11.04,42.68,1.81,53.44-3.93,4.58-16.09,4.11-22.84,5.74ZM94.9,52.38l-1.03-26.77c-14.42-.56-23.13-.54-37.83.07l-.83,26.7h39.69ZM104.27,105.44c4.14.76,12.58-.17,17.5-1.77,4.45-13.32,4.37-26.85-.36-40.31-31.44-2.54-60.96-2.45-92.42,0-5.39,13.09-4.9,26.72-.95,40.16,4.46,1.77,14.09,3.11,17.25,1.76,2.1-5.63,4.01-10.97,6.38-14.97,17.89-.36,53-9.7,52.6,15.13ZM94.09,124.31c.49-12.08.27-17.45-1.04-26.5l-36.41.43c-1.59,10.31-1.38,17.71.76,26.62l36.69-.55Z"/>
  <path d="M104.27,105.44c.41-24.82-34.71-15.49-52.6-15.13-2.37,4-4.28,9.34-6.38,14.97-3.16,1.35-12.79.01-17.25-1.76-3.95-13.44-4.44-27.06.95-40.16,31.47-2.45,60.98-2.54,92.42,0,4.73,13.46,4.81,26.99.36,40.31-4.92,1.6-13.36,2.53-17.5,1.77Z"/>
  <path class="cls-1" d="M94.9,52.38h-39.69s.83-26.7.83-26.7c14.7-.61,23.41-.63,37.83-.07l1.03,26.77Z"/>
  <path class="cls-1" d="M94.09,124.31l-36.69.55c-2.14-8.9-2.35-16.31-.76-26.62l36.41-.43c1.31,9.05,1.53,14.42,1.04,26.5Z"/>
</svg>