<?xml version="1.0" encoding="UTF-8"?>
<svg id="Calque_1" data-name="Calque 1" xmlns="http://www.w3.org/2000/svg" viewBox="0 0 150 150">
  <path d="M125.97,56.79c-5.56-3.05-15.38-3.31-21.33-4.17l-3.11-32.51c-17.73-6.17-33.67-5.42-52.06-.95-2.4,11.33-3.18,21.8-3.93,33.57-6.95.97-19.99.83-24.26,5.88-7.65,14.76-6.34,31.01-2.58,46.12,3.22,12.93,22.4,7.91,27.53,12.03.82,5.42,2.28,14.23,5.95,15.06,16.39,3.7,31.29,2.57,47.33.18l5.43-16.04c6.76-1.63,18.91-1.16,22.84-5.74,9.23-10.75,8.66-47.7-1.81-53.44ZM56.04,25.68c14.7-.61,23.41-.63,37.83-.07l1.03,26.77h-39.69s.83-26.7.83-26.7ZM94.09,124.31l-36.69.55c-2.14-8.9-2.35-16.31-.76-26.62l36.41-.43c1.31,9.05,1.53,14.42,1.04,26.5Z"/>
</svg>