<?xml version="1.0" encoding="UTF-8"?>
<svg id="Calque_1" data-name="Calque 1" xmlns="http://www.w3.org/2000/svg" viewBox="0 0 150 150">
  <path d="M104.55,15.72h-59.09c-6.6,0-12,5.4-12,12v94.56c0,6.6,5.4,12,12,12h59.09c6.6,0,12-5.4,12-12V27.72c0-6.6-5.4-12-12-12ZM48.96,78.05v-2.46h50.91v2.46h-50.91ZM86.97,84.29v2.46h-25.12v-2.46h25.12ZM45.87,64.59l29.69-16.3,29.69,16.3h-59.39ZM79.88,45.91l30.42-16.7v32.22c0,.39-.08.75-.21,1.1l-30.21-16.61ZM42.86,24.19h64.29c.81,0,1.54.32,2.1.82l-33.69,18.52-34.33-18.88c.48-.29,1.03-.47,1.63-.47ZM39.69,61.43V28.59l31.54,17.32-31.1,17.1c-.27-.47-.44-1-.44-1.58ZM52.47,123.25c-6.76,0-12.24-5.22-12.24-11.66s5.48-11.66,12.24-11.66,12.24,5.22,12.24,11.66-5.48,11.66-12.24,11.66ZM111.08,120.63h-39.82v-2.46h39.82v2.46ZM111.08,113.89h-39.82v-2.46h39.82v2.46ZM111.08,107.82h-39.82v-2.46h39.82v2.46Z"/>
</svg>