<?xml version="1.0" encoding="UTF-8"?>
<svg id="Calque_1" data-name="Calque 1" xmlns="http://www.w3.org/2000/svg" viewBox="0 0 1920 50">
  <defs>
    <style>
      .cls-1 {
        fill: none;
        stroke: #000;
        stroke-miterlimit: 10;
      }
    </style>
  </defs>
  <rect class="cls-1" x=".44" y=".58" width="1919.03" height="49.47"/>
  <path d="M304.85,26.68h0s.56-12.68,9.04-3.26c5,5.55-.23,10.35-4.09,11.38-1.77.48-11.2-.09-12.67-7.25-1.47-7.16,1.33-10.05,1.33-10.05,0-.06,5.52-8.04,16.34-3.81,9.27,3.63,12.85,14.92,8.63,23.5-4.67,9.5-14.05,8.72-14.05,8.72h-33.51s0,0,0,0c11.84-2.75,10.1-12.62,10.1-12.62l-.28-2.98c-1.19-11.89,7.48-19.51,7.48-19.51,12.16-9.41,28.51-5.14,28.51-5.14,11.5,2.7,26.5,9.34,32.68,12.2,1.25.58,3.06,1.42,4.41,1.66,1.19.21,7.11,1.15,9.04-3.58,1.08-2.65.14-5.37-1.93-6.56-2.18-1.26-4.65-1.24-6.84,0-6.02,3.43,1.29,6.95,1.29,6.95,0,0,0,0,0,0l-8.95-3.56c-5.27-2.1-10.63-3.98-16.05-5.66l-7.83-2.42s0,0,0,0h56.05s-17.02,7.5-5.74,29.56h0c-21.99-8.54-62.57-38.77-80.79-20.66,0,0-3.63,3.17-4.13,8.58-.73,7.84,4.44,13.59,7.71,15.38,3.86,2.11,10.1,2.16,15.15-.87,2.52-1.51,4.28-4.59,4.09-7.99-.23-3.99-2.92-7.13-3.63-7.76-7.4-6.53-11.15-3.67-13.13-1.24-1.35,1.66-3.4,6.2,1.06,8.95.67.41,1.51.82,2.46.98,1.74.3,3.5-.71,4.01-2.4.13-.41.16-.8,0-1.11-1.44-2.88-4.64-2.8-5.78.55Z"/>
  <path d="M398.73,23.95h0s-.56,12.68-9.04,3.26c-5-5.55.23-10.35,4.09-11.38,1.77-.48,11.2.09,12.67,7.25,1.47,7.16-1.33,10.05-1.33,10.05,0,.06-5.52,8.04-16.34,3.81-9.27-3.63-12.85-14.92-8.63-23.5,4.67-9.5,14.05-8.72,14.05-8.72h33.51s0,0,0,0c-11.84,2.75-10.1,12.62-10.1,12.62l.28,2.98c1.19,11.89-7.48,19.51-7.48,19.51-12.16,9.41-28.51,5.14-28.51,5.14-11.5-2.7-26.5-9.34-32.68-12.2-1.25-.58-3.06-1.42-4.41-1.66-1.19-.21-7.11-1.15-9.04,3.58-1.08,2.65-.14,5.37,1.93,6.56,2.18,1.26,4.65,1.24,6.84,0,6.02-3.43-1.29-6.95-1.29-6.95,0,0,0,0,0,0l8.95,3.56c5.27,2.1,10.63,3.98,16.05,5.66l7.83,2.42s0,0,0,0h-56.05s17.02-7.5,5.74-29.56h0c21.99,8.54,62.57,38.77,80.79,20.66,0,0,3.63-3.17,4.13-8.58.73-7.84-4.44-13.59-7.71-15.38-3.86-2.11-10.1-2.16-15.15.87-2.52,1.51-4.28,4.59-4.09,7.99.23,3.99,2.92,7.13,3.63,7.76,7.4,6.53,11.15,3.67,13.13,1.24,1.35-1.66,3.4-6.2-1.06-8.95-.67-.41-1.51-.82-2.46-.98-1.74-.3-3.5.71-4.01,2.4-.13.41-.16.8,0,1.11,1.44,2.88,4.64,2.8,5.78-.55Z"/>
  <path d="M440.17,26.68h0s.56-12.68,9.04-3.26c5,5.55-.23,10.35-4.09,11.38-1.77.48-11.2-.09-12.67-7.25-1.47-7.16,1.33-10.05,1.33-10.05,0-.06,5.52-8.04,16.34-3.81,9.27,3.63,12.85,14.92,8.63,23.5-4.67,9.5-14.05,8.72-14.05,8.72h-33.51s0,0,0,0c11.84-2.75,10.1-12.62,10.1-12.62l-.28-2.98c-1.19-11.89,7.48-19.51,7.48-19.51,12.16-9.41,28.51-5.14,28.51-5.14,11.5,2.7,26.5,9.34,32.68,12.2,1.25.58,3.06,1.42,4.41,1.66,1.19.21,7.11,1.15,9.04-3.58,1.08-2.65.14-5.37-1.93-6.56-2.18-1.26-4.65-1.24-6.84,0-6.02,3.43,1.29,6.95,1.29,6.95,0,0,0,0,0,0l-8.95-3.56c-5.27-2.1-10.63-3.98-16.05-5.66l-7.83-2.42s0,0,0,0h56.05s-17.02,7.5-5.74,29.56c0,0,0,0,0,0-21.99-8.54-62.57-38.77-80.79-20.66,0,0-3.63,3.17-4.13,8.58-.73,7.84,4.44,13.59,7.71,15.38,3.86,2.11,10.1,2.16,15.15-.87,2.52-1.51,4.28-4.59,4.09-7.99-.23-3.99-2.92-7.13-3.63-7.76-7.4-6.53-11.15-3.67-13.13-1.24-1.35,1.66-3.4,6.2,1.06,8.95.67.41,1.51.82,2.46.98,1.74.3,3.5-.71,4.01-2.4.13-.41.16-.8,0-1.11-1.44-2.88-4.64-2.8-5.78.55Z"/>
  <path d="M534.05,23.95h0s-.56,12.68-9.04,3.26c-5-5.55.23-10.35,4.09-11.38,1.77-.48,11.2.09,12.67,7.25,1.47,7.16-1.33,10.05-1.33,10.05,0,.06-5.52,8.04-16.34,3.81-9.27-3.63-12.85-14.92-8.63-23.5,4.67-9.5,14.05-8.72,14.05-8.72h33.51s0,0,0,0c-11.84,2.75-10.1,12.62-10.1,12.62l.28,2.98c1.19,11.89-7.48,19.51-7.48,19.51-12.16,9.41-28.51,5.14-28.51,5.14-11.5-2.7-26.5-9.34-32.68-12.2-1.25-.58-3.06-1.42-4.41-1.66-1.19-.21-7.11-1.15-9.04,3.58-1.08,2.65-.14,5.37,1.93,6.56,2.18,1.26,4.65,1.24,6.84,0,6.02-3.43-1.29-6.95-1.29-6.95,0,0,0,0,0,0l8.95,3.56c5.27,2.1,10.63,3.98,16.05,5.66l7.83,2.42s0,0,0,0h-56.05s17.02-7.5,5.74-29.56c0,0,0,0,0,0,21.99,8.54,62.57,38.77,80.79,20.66,0,0,3.63-3.17,4.13-8.58.73-7.84-4.44-13.59-7.71-15.38-3.86-2.11-10.1-2.16-15.15.87-2.52,1.51-4.28,4.59-4.09,7.99.23,3.99,2.92,7.13,3.63,7.76,7.4,6.53,11.15,3.67,13.13,1.24,1.35-1.66,3.4-6.2-1.06-8.95-.67-.41-1.51-.82-2.46-.98-1.74-.3-3.5.71-4.01,2.4-.13.41-.16.8,0,1.11,1.44,2.88,4.64,2.8,5.78-.55Z"/>
  <path d="M575.5,26.68h0s.56-12.68,9.04-3.26c5,5.55-.23,10.35-4.09,11.38-1.77.48-11.2-.09-12.67-7.25-1.47-7.16,1.33-10.05,1.33-10.05,0-.06,5.52-8.04,16.34-3.81,9.27,3.63,12.85,14.92,8.63,23.5-4.67,9.5-14.05,8.72-14.05,8.72h-33.51s0,0,0,0c11.84-2.75,10.1-12.62,10.1-12.62l-.28-2.98c-1.19-11.89,7.48-19.51,7.48-19.51,12.16-9.41,28.51-5.14,28.51-5.14,11.5,2.7,26.5,9.34,32.68,12.2,1.25.58,3.06,1.42,4.41,1.66,1.19.21,7.11,1.15,9.04-3.58,1.08-2.65.14-5.37-1.93-6.56-2.18-1.26-4.65-1.24-6.84,0-6.02,3.43,1.29,6.95,1.29,6.95,0,0,0,0,0,0l-8.95-3.56c-5.27-2.1-10.63-3.98-16.05-5.66l-7.83-2.42s0,0,0,0h56.05s-17.02,7.5-5.74,29.56c0,0,0,0,0,0-21.99-8.54-62.57-38.77-80.79-20.66,0,0-3.63,3.17-4.13,8.58-.73,7.84,4.44,13.59,7.71,15.38,3.86,2.11,10.1,2.16,15.15-.87,2.52-1.51,4.28-4.59,4.09-7.99-.23-3.99-2.92-7.13-3.63-7.76-7.4-6.53-11.15-3.67-13.13-1.24-1.35,1.66-3.4,6.2,1.06,8.95.67.41,1.51.82,2.46.98,1.74.3,3.5-.71,4.01-2.4.13-.41.16-.8,0-1.11-1.44-2.88-4.64-2.8-5.78.55Z"/>
  <path d="M669.37,23.95h0s-.56,12.68-9.04,3.26c-5-5.55.23-10.35,4.09-11.38,1.77-.48,11.2.09,12.67,7.25,1.47,7.16-1.33,10.05-1.33,10.05,0,.06-5.52,8.04-16.34,3.81-9.27-3.63-12.85-14.92-8.63-23.5,4.67-9.5,14.05-8.72,14.05-8.72h33.51s0,0,0,0c-11.84,2.75-10.1,12.62-10.1,12.62l.28,2.98c1.19,11.89-7.48,19.51-7.48,19.51-12.16,9.41-28.51,5.14-28.51,5.14-11.5-2.7-26.5-9.34-32.68-12.2-1.25-.58-3.06-1.42-4.41-1.66-1.19-.21-7.11-1.15-9.04,3.58-1.08,2.65-.14,5.37,1.93,6.56,2.18,1.26,4.65,1.24,6.84,0,6.02-3.43-1.29-6.95-1.29-6.95,0,0,0,0,0,0l8.95,3.56c5.27,2.1,10.63,3.98,16.05,5.66l7.83,2.42s0,0,0,0h-56.05s17.02-7.5,5.74-29.56c0,0,0,0,0,0,21.99,8.54,62.57,38.77,80.79,20.66,0,0,3.63-3.17,4.13-8.58.73-7.84-4.44-13.59-7.71-15.38-3.86-2.11-10.1-2.16-15.15.87-2.52,1.51-4.28,4.59-4.09,7.99.23,3.99,2.92,7.13,3.63,7.76,7.4,6.53,11.15,3.67,13.13,1.24,1.35-1.66,3.4-6.2-1.06-8.95-.67-.41-1.51-.82-2.46-.98-1.74-.3-3.5.71-4.01,2.4-.13.41-.16.8,0,1.11,1.44,2.88,4.64,2.8,5.78-.55Z"/>
  <path d="M34.21,26.68h0s.56-12.68,9.04-3.26c5,5.55-.23,10.35-4.09,11.38-1.77.48-11.2-.09-12.67-7.25-1.47-7.16,1.33-10.05,1.33-10.05,0-.06,5.52-8.04,16.34-3.81,9.27,3.63,12.85,14.92,8.63,23.5-4.67,9.5-14.05,8.72-14.05,8.72H5.24s0,0,0,0c11.84-2.75,10.1-12.62,10.1-12.62l-.28-2.98c-1.19-11.89,7.48-19.51,7.48-19.51,12.16-9.41,28.51-5.14,28.51-5.14,11.5,2.7,26.5,9.34,32.68,12.2,1.25.58,3.06,1.42,4.41,1.66,1.19.21,7.11,1.15,9.04-3.58,1.08-2.65.14-5.37-1.93-6.56-2.18-1.26-4.65-1.24-6.84,0-6.02,3.43,1.29,6.95,1.29,6.95,0,0,0,0,0,0l-8.95-3.56c-5.27-2.1-10.63-3.98-16.05-5.66l-7.83-2.42s0,0,0,0h56.05s-17.02,7.5-5.74,29.56h0C85.21,25.72,44.63-4.51,26.4,13.6c0,0-3.63,3.17-4.13,8.58-.73,7.84,4.44,13.59,7.71,15.38,3.86,2.11,10.1,2.16,15.15-.87,2.52-1.51,4.28-4.59,4.09-7.99-.23-3.99-2.92-7.13-3.63-7.76-7.4-6.53-11.15-3.67-13.13-1.24-1.35,1.66-3.4,6.2,1.06,8.95.67.41,1.51.82,2.46.98,1.74.3,3.5-.71,4.01-2.4.13-.41.16-.8,0-1.11-1.44-2.88-4.64-2.8-5.78.55Z"/>
  <path d="M128.08,23.95h0s-.56,12.68-9.04,3.26c-5-5.55.23-10.35,4.09-11.38,1.77-.48,11.2.09,12.67,7.25s-1.33,10.05-1.33,10.05c0,.06-5.52,8.04-16.34,3.81-9.27-3.63-12.85-14.92-8.63-23.5,4.67-9.5,14.05-8.72,14.05-8.72h33.51s0,0,0,0c-11.84,2.75-10.1,12.62-10.1,12.62l.28,2.98c1.19,11.89-7.48,19.51-7.48,19.51-12.16,9.41-28.51,5.14-28.51,5.14-11.5-2.7-26.5-9.34-32.68-12.2-1.25-.58-3.06-1.42-4.41-1.66-1.19-.21-7.11-1.15-9.04,3.58-1.08,2.65-.14,5.37,1.93,6.56,2.18,1.26,4.65,1.24,6.84,0,6.02-3.43-1.29-6.95-1.29-6.95,0,0,0,0,0,0l8.95,3.56c5.27,2.1,10.63,3.98,16.05,5.66l7.83,2.42s0,0,0,0h-56.05s17.02-7.5,5.74-29.56h0c21.99,8.54,62.57,38.77,80.79,20.66,0,0,3.63-3.17,4.13-8.58.73-7.84-4.44-13.59-7.71-15.38-3.86-2.11-10.1-2.16-15.15.87-2.52,1.51-4.28,4.59-4.09,7.99.23,3.99,2.92,7.13,3.63,7.76,7.4,6.53,11.15,3.67,13.13,1.24,1.35-1.66,3.4-6.2-1.06-8.95-.67-.41-1.51-.82-2.46-.98-1.74-.3-3.5.71-4.01,2.4-.13.41-.16.8,0,1.11,1.44,2.88,4.64,2.8,5.78-.55Z"/>
  <path d="M169.53,26.68h0s.56-12.68,9.04-3.26c5,5.55-.23,10.35-4.09,11.38-1.77.48-11.2-.09-12.67-7.25-1.47-7.16,1.33-10.05,1.33-10.05,0-.06,5.52-8.04,16.34-3.81,9.27,3.63,12.85,14.92,8.63,23.5-4.67,9.5-14.05,8.72-14.05,8.72h-33.51s0,0,0,0c11.84-2.75,10.1-12.62,10.1-12.62l-.28-2.98c-1.19-11.89,7.48-19.51,7.48-19.51,12.16-9.41,28.51-5.14,28.51-5.14,11.5,2.7,26.5,9.34,32.68,12.2,1.25.58,3.06,1.42,4.41,1.66,1.19.21,7.11,1.15,9.04-3.58,1.08-2.65.14-5.37-1.93-6.56-2.18-1.26-4.65-1.24-6.84,0-6.02,3.43,1.29,6.95,1.29,6.95,0,0,0,0,0,0l-8.95-3.56c-5.27-2.1-10.63-3.98-16.05-5.66l-7.83-2.42s0,0,0,0h56.05s-17.02,7.5-5.74,29.56c0,0,0,0,0,0-21.99-8.54-62.57-38.77-80.79-20.66,0,0-3.63,3.17-4.13,8.58-.73,7.84,4.44,13.59,7.71,15.38,3.86,2.11,10.1,2.16,15.15-.87,2.52-1.51,4.28-4.59,4.09-7.99-.23-3.99-2.92-7.13-3.63-7.76-7.4-6.53-11.15-3.67-13.13-1.24-1.35,1.66-3.4,6.2,1.06,8.95.67.41,1.51.82,2.46.98,1.74.3,3.5-.71,4.01-2.4.13-.41.16-.8,0-1.11-1.44-2.88-4.64-2.8-5.78.55Z"/>
  <path d="M263.4,23.95h0s-.56,12.68-9.04,3.26c-5-5.55.23-10.35,4.09-11.38,1.77-.48,11.2.09,12.67,7.25s-1.33,10.05-1.33,10.05c0,.06-5.52,8.04-16.34,3.81-9.27-3.63-12.85-14.92-8.63-23.5,4.67-9.5,14.05-8.72,14.05-8.72h33.51s0,0,0,0c-11.84,2.75-10.1,12.62-10.1,12.62l.28,2.98c1.19,11.89-7.48,19.51-7.48,19.51-12.16,9.41-28.51,5.14-28.51,5.14-11.5-2.7-26.5-9.34-32.68-12.2-1.25-.58-3.06-1.42-4.41-1.66-1.19-.21-7.11-1.15-9.04,3.58-1.08,2.65-.14,5.37,1.93,6.56,2.18,1.26,4.65,1.24,6.84,0,6.02-3.43-1.29-6.95-1.29-6.95,0,0,0,0,0,0l8.95,3.56c5.27,2.1,10.63,3.98,16.05,5.66l7.83,2.42s0,0,0,0h-56.05s17.02-7.5,5.74-29.56c0,0,0,0,0,0,21.99,8.54,62.57,38.77,80.79,20.66,0,0,3.63-3.17,4.13-8.58.73-7.84-4.44-13.59-7.71-15.38-3.86-2.11-10.1-2.16-15.15.87-2.52,1.51-4.28,4.59-4.09,7.99.23,3.99,2.92,7.13,3.63,7.76,7.4,6.53,11.15,3.67,13.13,1.24,1.35-1.66,3.4-6.2-1.06-8.95-.67-.41-1.51-.82-2.46-.98-1.74-.3-3.5.71-4.01,2.4-.13.41-.16.8,0,1.11,1.44,2.88,4.64,2.8,5.78-.55Z"/>
  <path d="M981.5,26.68h0s.56-12.68,9.04-3.26c5,5.55-.23,10.35-4.09,11.38-1.77.48-11.2-.09-12.67-7.25-1.47-7.16,1.33-10.05,1.33-10.05,0-.06,5.52-8.04,16.34-3.81,9.27,3.63,12.85,14.92,8.63,23.5-4.67,9.5-14.05,8.72-14.05,8.72h-33.51s0,0,0,0c11.84-2.75,10.1-12.62,10.1-12.62l-.28-2.98c-1.19-11.89,7.48-19.51,7.48-19.51,12.16-9.41,28.51-5.14,28.51-5.14,11.5,2.7,26.5,9.34,32.68,12.2,1.25.58,3.06,1.42,4.41,1.66,1.19.21,7.11,1.15,9.04-3.58,1.08-2.65.14-5.37-1.93-6.56-2.18-1.26-4.65-1.24-6.84,0-6.02,3.43,1.29,6.95,1.29,6.95,0,0,0,0,0,0l-8.95-3.56c-5.27-2.1-10.63-3.98-16.05-5.66l-7.83-2.42s0,0,0,0h56.05s-17.02,7.5-5.74,29.56h0c-21.99-8.54-62.57-38.77-80.79-20.66,0,0-3.63,3.17-4.13,8.58-.73,7.84,4.44,13.59,7.71,15.38,3.86,2.11,10.1,2.16,15.15-.87,2.52-1.51,4.28-4.59,4.09-7.99-.23-3.99-2.92-7.13-3.63-7.76-7.4-6.53-11.15-3.67-13.13-1.24-1.35,1.66-3.4,6.2,1.06,8.95.67.41,1.51.82,2.46.98,1.74.3,3.5-.71,4.01-2.4.13-.41.16-.8,0-1.11-1.44-2.88-4.64-2.8-5.78.55Z"/>
  <path d="M1075.38,23.95h0s-.56,12.68-9.04,3.26c-5-5.55.23-10.35,4.09-11.38,1.77-.48,11.2.09,12.67,7.25,1.47,7.16-1.33,10.05-1.33,10.05,0,.06-5.52,8.04-16.34,3.81-9.27-3.63-12.85-14.92-8.63-23.5,4.67-9.5,14.05-8.72,14.05-8.72h33.51s0,0,0,0c-11.84,2.75-10.1,12.62-10.1,12.62l.28,2.98c1.19,11.89-7.48,19.51-7.48,19.51-12.16,9.41-28.51,5.14-28.51,5.14-11.5-2.7-26.5-9.34-32.68-12.2-1.25-.58-3.06-1.42-4.41-1.66-1.19-.21-7.11-1.15-9.04,3.58-1.08,2.65-.14,5.37,1.93,6.56,2.18,1.26,4.65,1.24,6.84,0,6.02-3.43-1.29-6.95-1.29-6.95,0,0,0,0,0,0l8.95,3.56c5.27,2.1,10.63,3.98,16.05,5.66l7.83,2.42s0,0,0,0h-56.05s17.02-7.5,5.74-29.56h0c21.99,8.54,62.57,38.77,80.79,20.66,0,0,3.63-3.17,4.13-8.58.73-7.84-4.44-13.59-7.71-15.38-3.86-2.11-10.1-2.16-15.15.87-2.52,1.51-4.28,4.59-4.09,7.99.23,3.99,2.92,7.13,3.63,7.76,7.4,6.53,11.15,3.67,13.13,1.24,1.35-1.66,3.4-6.2-1.06-8.95-.67-.41-1.51-.82-2.46-.98-1.74-.3-3.5.71-4.01,2.4-.13.41-.16.8,0,1.11,1.44,2.88,4.64,2.8,5.78-.55Z"/>
  <path d="M1116.82,26.68h0s.56-12.68,9.04-3.26c5,5.55-.23,10.35-4.09,11.38-1.77.48-11.2-.09-12.67-7.25-1.47-7.16,1.33-10.05,1.33-10.05,0-.06,5.52-8.04,16.34-3.81,9.27,3.63,12.85,14.92,8.63,23.5-4.67,9.5-14.05,8.72-14.05,8.72h-33.51s0,0,0,0c11.84-2.75,10.1-12.62,10.1-12.62l-.28-2.98c-1.19-11.89,7.48-19.51,7.48-19.51,12.16-9.41,28.51-5.14,28.51-5.14,11.5,2.7,26.5,9.34,32.68,12.2,1.25.58,3.06,1.42,4.41,1.66,1.19.21,7.11,1.15,9.04-3.58,1.08-2.65.14-5.37-1.93-6.56-2.18-1.26-4.65-1.24-6.84,0-6.02,3.43,1.29,6.95,1.29,6.95,0,0,0,0,0,0l-8.95-3.56c-5.27-2.1-10.63-3.98-16.05-5.66l-7.83-2.42s0,0,0,0h56.05s-17.02,7.5-5.74,29.56c0,0,0,0,0,0-21.99-8.54-62.57-38.77-80.79-20.66,0,0-3.63,3.17-4.13,8.58-.73,7.84,4.44,13.59,7.71,15.38,3.86,2.11,10.1,2.16,15.15-.87,2.52-1.51,4.28-4.59,4.09-7.99-.23-3.99-2.92-7.13-3.63-7.76-7.4-6.53-11.15-3.67-13.13-1.24-1.35,1.66-3.4,6.2,1.06,8.95.67.41,1.51.82,2.46.98,1.74.3,3.5-.71,4.01-2.4.13-.41.16-.8,0-1.11-1.44-2.88-4.64-2.8-5.78.55Z"/>
  <path d="M1210.7,23.95h0s-.56,12.68-9.04,3.26c-5-5.55.23-10.35,4.09-11.38,1.77-.48,11.2.09,12.67,7.25,1.47,7.16-1.33,10.05-1.33,10.05,0,.06-5.52,8.04-16.34,3.81-9.27-3.63-12.85-14.92-8.63-23.5,4.67-9.5,14.05-8.72,14.05-8.72h33.51s0,0,0,0c-11.84,2.75-10.1,12.62-10.1,12.62l.28,2.98c1.19,11.89-7.48,19.51-7.48,19.51-12.16,9.41-28.51,5.14-28.51,5.14-11.5-2.7-26.5-9.34-32.68-12.2-1.25-.58-3.06-1.42-4.41-1.66-1.19-.21-7.11-1.15-9.04,3.58-1.08,2.65-.14,5.37,1.93,6.56,2.18,1.26,4.65,1.24,6.84,0,6.02-3.43-1.29-6.95-1.29-6.95,0,0,0,0,0,0l8.95,3.56c5.27,2.1,10.63,3.98,16.05,5.66l7.83,2.42s0,0,0,0h-56.05s17.02-7.5,5.74-29.56c0,0,0,0,0,0,21.99,8.54,62.57,38.77,80.79,20.66,0,0,3.63-3.17,4.13-8.58.73-7.84-4.44-13.59-7.71-15.38-3.86-2.11-10.1-2.16-15.15.87-2.52,1.51-4.28,4.59-4.09,7.99.23,3.99,2.92,7.13,3.63,7.76,7.4,6.53,11.15,3.67,13.13,1.24,1.35-1.66,3.4-6.2-1.06-8.95-.67-.41-1.51-.82-2.46-.98-1.74-.3-3.5.71-4.01,2.4-.13.41-.16.8,0,1.11,1.44,2.88,4.64,2.8,5.78-.55Z"/>
  <path d="M1252.15,26.68h0s.56-12.68,9.04-3.26c5,5.55-.23,10.35-4.09,11.38-1.77.48-11.2-.09-12.67-7.25-1.47-7.16,1.33-10.05,1.33-10.05,0-.06,5.52-8.04,16.34-3.81,9.27,3.63,12.85,14.92,8.63,23.5-4.67,9.5-14.05,8.72-14.05,8.72h-33.51s0,0,0,0c11.84-2.75,10.1-12.62,10.1-12.62l-.28-2.98c-1.19-11.89,7.48-19.51,7.48-19.51,12.16-9.41,28.51-5.14,28.51-5.14,11.5,2.7,26.5,9.34,32.68,12.2,1.25.58,3.06,1.42,4.41,1.66,1.19.21,7.11,1.15,9.04-3.58,1.08-2.65.14-5.37-1.93-6.56-2.18-1.26-4.65-1.24-6.84,0-6.02,3.43,1.29,6.95,1.29,6.95,0,0,0,0,0,0l-8.95-3.56c-5.27-2.1-10.63-3.98-16.05-5.66l-7.83-2.42s0,0,0,0h56.05s-17.02,7.5-5.74,29.56c0,0,0,0,0,0-21.99-8.54-62.57-38.77-80.79-20.66,0,0-3.63,3.17-4.13,8.58-.73,7.84,4.44,13.59,7.71,15.38,3.86,2.11,10.1,2.16,15.15-.87,2.52-1.51,4.28-4.59,4.09-7.99-.23-3.99-2.92-7.13-3.63-7.76-7.4-6.53-11.15-3.67-13.13-1.24-1.35,1.66-3.4,6.2,1.06,8.95.67.41,1.51.82,2.46.98,1.74.3,3.5-.71,4.01-2.4.13-.41.16-.8,0-1.11-1.44-2.88-4.64-2.8-5.78.55Z"/>
  <path d="M1346.02,23.95h0s-.56,12.68-9.04,3.26c-5-5.55.23-10.35,4.09-11.38,1.77-.48,11.2.09,12.67,7.25,1.47,7.16-1.33,10.05-1.33,10.05,0,.06-5.52,8.04-16.34,3.81-9.27-3.63-12.85-14.92-8.63-23.5,4.67-9.5,14.05-8.72,14.05-8.72h33.51s0,0,0,0c-11.84,2.75-10.1,12.62-10.1,12.62l.28,2.98c1.19,11.89-7.48,19.51-7.48,19.51-12.16,9.41-28.51,5.14-28.51,5.14-11.5-2.7-26.5-9.34-32.68-12.2-1.25-.58-3.06-1.42-4.41-1.66-1.19-.21-7.11-1.15-9.04,3.58-1.08,2.65-.14,5.37,1.93,6.56,2.18,1.26,4.65,1.24,6.84,0,6.02-3.43-1.29-6.95-1.29-6.95,0,0,0,0,0,0l8.95,3.56c5.27,2.1,10.63,3.98,16.05,5.66l7.83,2.42s0,0,0,0h-56.05s17.02-7.5,5.74-29.56c0,0,0,0,0,0,21.99,8.54,62.57,38.77,80.79,20.66,0,0,3.63-3.17,4.13-8.58.73-7.84-4.44-13.59-7.71-15.38-3.86-2.11-10.1-2.16-15.15.87-2.52,1.51-4.28,4.59-4.09,7.99.23,3.99,2.92,7.13,3.63,7.76,7.4,6.53,11.15,3.67,13.13,1.24,1.35-1.66,3.4-6.2-1.06-8.95-.67-.41-1.51-.82-2.46-.98-1.74-.3-3.5.71-4.01,2.4-.13.41-.16.8,0,1.11,1.44,2.88,4.64,2.8,5.78-.55Z"/>
  <path d="M710.86,26.68h0s.56-12.68,9.04-3.26c5,5.55-.23,10.35-4.09,11.38-1.77.48-11.2-.09-12.67-7.25-1.47-7.16,1.33-10.05,1.33-10.05,0-.06,5.52-8.04,16.34-3.81,9.27,3.63,12.85,14.92,8.63,23.5-4.67,9.5-14.05,8.72-14.05,8.72h-33.51s0,0,0,0c11.84-2.75,10.1-12.62,10.1-12.62l-.28-2.98c-1.19-11.89,7.48-19.51,7.48-19.51,12.16-9.41,28.51-5.14,28.51-5.14,11.5,2.7,26.5,9.34,32.68,12.2,1.25.58,3.06,1.42,4.41,1.66,1.19.21,7.11,1.15,9.04-3.58,1.08-2.65.14-5.37-1.93-6.56-2.18-1.26-4.65-1.24-6.84,0-6.02,3.43,1.29,6.95,1.29,6.95,0,0,0,0,0,0l-8.95-3.56c-5.27-2.1-10.63-3.98-16.05-5.66l-7.83-2.42s0,0,0,0h56.05s-17.02,7.5-5.74,29.56h0c-21.99-8.54-62.57-38.77-80.79-20.66,0,0-3.63,3.17-4.13,8.58-.73,7.84,4.44,13.59,7.71,15.38,3.86,2.11,10.1,2.16,15.15-.87,2.52-1.51,4.28-4.59,4.09-7.99-.23-3.99-2.92-7.13-3.63-7.76-7.4-6.53-11.15-3.67-13.13-1.24-1.35,1.66-3.4,6.2,1.06,8.95.67.41,1.51.82,2.46.98,1.74.3,3.5-.71,4.01-2.4.13-.41.16-.8,0-1.11-1.44-2.88-4.64-2.8-5.78.55Z"/>
  <path d="M804.73,23.95h0s-.56,12.68-9.04,3.26c-5-5.55.23-10.35,4.09-11.38,1.77-.48,11.2.09,12.67,7.25s-1.33,10.05-1.33,10.05c0,.06-5.52,8.04-16.34,3.81-9.27-3.63-12.85-14.92-8.63-23.5,4.67-9.5,14.05-8.72,14.05-8.72h33.51s0,0,0,0c-11.84,2.75-10.1,12.62-10.1,12.62l.28,2.98c1.19,11.89-7.48,19.51-7.48,19.51-12.16,9.41-28.51,5.14-28.51,5.14-11.5-2.7-26.5-9.34-32.68-12.2-1.25-.58-3.06-1.42-4.41-1.66-1.19-.21-7.11-1.15-9.04,3.58-1.08,2.65-.14,5.37,1.93,6.56,2.18,1.26,4.65,1.24,6.84,0,6.02-3.43-1.29-6.95-1.29-6.95,0,0,0,0,0,0l8.95,3.56c5.27,2.1,10.63,3.98,16.05,5.66l7.83,2.42s0,0,0,0h-56.05s17.02-7.5,5.74-29.56h0c21.99,8.54,62.57,38.77,80.79,20.66,0,0,3.63-3.17,4.13-8.58.73-7.84-4.44-13.59-7.71-15.38-3.86-2.11-10.1-2.16-15.15.87-2.52,1.51-4.28,4.59-4.09,7.99.23,3.99,2.92,7.13,3.63,7.76,7.4,6.53,11.15,3.67,13.13,1.24,1.35-1.66,3.4-6.2-1.06-8.95-.67-.41-1.51-.82-2.46-.98-1.74-.3-3.5.71-4.01,2.4-.13.41-.16.8,0,1.11,1.44,2.88,4.64,2.8,5.78-.55Z"/>
  <path d="M846.18,26.68h0s.56-12.68,9.04-3.26c5,5.55-.23,10.35-4.09,11.38-1.77.48-11.2-.09-12.67-7.25-1.47-7.16,1.33-10.05,1.33-10.05,0-.06,5.52-8.04,16.34-3.81,9.27,3.63,12.85,14.92,8.63,23.5-4.67,9.5-14.05,8.72-14.05,8.72h-33.51s0,0,0,0c11.84-2.75,10.1-12.62,10.1-12.62l-.28-2.98c-1.19-11.89,7.48-19.51,7.48-19.51,12.16-9.41,28.51-5.14,28.51-5.14,11.5,2.7,26.5,9.34,32.68,12.2,1.25.58,3.06,1.42,4.41,1.66,1.19.21,7.11,1.15,9.04-3.58,1.08-2.65.14-5.37-1.93-6.56-2.18-1.26-4.65-1.24-6.84,0-6.02,3.43,1.29,6.95,1.29,6.95,0,0,0,0,0,0l-8.95-3.56c-5.27-2.1-10.63-3.98-16.05-5.66l-7.83-2.42s0,0,0,0h56.05s-17.02,7.5-5.74,29.56c0,0,0,0,0,0-21.99-8.54-62.57-38.77-80.79-20.66,0,0-3.63,3.17-4.13,8.58-.73,7.84,4.44,13.59,7.71,15.38,3.86,2.11,10.1,2.16,15.15-.87,2.52-1.51,4.28-4.59,4.09-7.99-.23-3.99-2.92-7.13-3.63-7.76-7.4-6.53-11.15-3.67-13.13-1.24-1.35,1.66-3.4,6.2,1.06,8.95.67.41,1.51.82,2.46.98,1.74.3,3.5-.71,4.01-2.4.13-.41.16-.8,0-1.11-1.44-2.88-4.64-2.8-5.78.55Z"/>
  <path d="M940.05,23.95h0s-.56,12.68-9.04,3.26c-5-5.55.23-10.35,4.09-11.38,1.77-.48,11.2.09,12.67,7.25s-1.33,10.05-1.33,10.05c0,.06-5.52,8.04-16.34,3.81-9.27-3.63-12.85-14.92-8.63-23.5,4.67-9.5,14.05-8.72,14.05-8.72h33.51s0,0,0,0c-11.84,2.75-10.1,12.62-10.1,12.62l.28,2.98c1.19,11.89-7.48,19.51-7.48,19.51-12.16,9.41-28.51,5.14-28.51,5.14-11.5-2.7-26.5-9.34-32.68-12.2-1.25-.58-3.06-1.42-4.41-1.66-1.19-.21-7.11-1.15-9.04,3.58-1.08,2.65-.14,5.37,1.93,6.56,2.18,1.26,4.65,1.24,6.84,0,6.02-3.43-1.29-6.95-1.29-6.95,0,0,0,0,0,0l8.95,3.56c5.27,2.1,10.63,3.98,16.05,5.66l7.83,2.42s0,0,0,0h-56.05s17.02-7.5,5.74-29.56c0,0,0,0,0,0,21.99,8.54,62.57,38.77,80.79,20.66,0,0,3.63-3.17,4.13-8.58.73-7.84-4.44-13.59-7.71-15.38-3.86-2.11-10.1-2.16-15.15.87-2.52,1.51-4.28,4.59-4.09,7.99.23,3.99,2.92,7.13,3.63,7.76,7.4,6.53,11.15,3.67,13.13,1.24,1.35-1.66,3.4-6.2-1.06-8.95-.67-.41-1.51-.82-2.46-.98-1.74-.3-3.5.71-4.01,2.4-.13.41-.16.8,0,1.11,1.44,2.88,4.64,2.8,5.78-.55Z"/>
  <path d="M1657.86,26.68h0s.56-12.68,9.04-3.26c5,5.55-.23,10.35-4.09,11.38-1.77.48-11.2-.09-12.67-7.25-1.47-7.16,1.33-10.05,1.33-10.05,0-.06,5.52-8.04,16.34-3.81,9.27,3.63,12.85,14.92,8.63,23.5-4.67,9.5-14.05,8.72-14.05,8.72h-33.51s0,0,0,0c11.84-2.75,10.1-12.62,10.1-12.62l-.28-2.98c-1.19-11.89,7.48-19.51,7.48-19.51,12.16-9.41,28.51-5.14,28.51-5.14,11.5,2.7,26.5,9.34,32.68,12.2,1.25.58,3.06,1.42,4.41,1.66,1.19.21,7.11,1.15,9.04-3.58,1.08-2.65.14-5.37-1.93-6.56-2.18-1.26-4.65-1.24-6.84,0-6.02,3.43,1.29,6.95,1.29,6.95,0,0,0,0,0,0l-8.95-3.56c-5.27-2.1-10.63-3.98-16.05-5.66l-7.83-2.42s0,0,0,0h56.05s-17.02,7.5-5.74,29.56h0c-21.99-8.54-62.57-38.77-80.79-20.66,0,0-3.63,3.17-4.13,8.58-.73,7.84,4.44,13.59,7.71,15.38,3.86,2.11,10.1,2.16,15.15-.87,2.52-1.51,4.28-4.59,4.09-7.99-.23-3.99-2.92-7.13-3.63-7.76-7.4-6.53-11.15-3.67-13.13-1.24-1.35,1.66-3.4,6.2,1.06,8.95.67.41,1.51.82,2.46.98,1.74.3,3.5-.71,4.01-2.4.13-.41.16-.8,0-1.11-1.44-2.88-4.64-2.8-5.78.55Z"/>
  <path d="M1751.73,23.95h0s-.56,12.68-9.04,3.26c-5-5.55.23-10.35,4.09-11.38,1.77-.48,11.2.09,12.67,7.25,1.47,7.16-1.33,10.05-1.33,10.05,0,.06-5.52,8.04-16.34,3.81-9.27-3.63-12.85-14.92-8.63-23.5,4.67-9.5,14.05-8.72,14.05-8.72h33.51s0,0,0,0c-11.84,2.75-10.1,12.62-10.1,12.62l.28,2.98c1.19,11.89-7.48,19.51-7.48,19.51-12.16,9.41-28.51,5.14-28.51,5.14-11.5-2.7-26.5-9.34-32.68-12.2-1.25-.58-3.06-1.42-4.41-1.66-1.19-.21-7.11-1.15-9.04,3.58-1.08,2.65-.14,5.37,1.93,6.56,2.18,1.26,4.65,1.24,6.84,0,6.02-3.43-1.29-6.95-1.29-6.95,0,0,0,0,0,0l8.95,3.56c5.27,2.1,10.63,3.98,16.05,5.66l7.83,2.42s0,0,0,0h-56.05s17.02-7.5,5.74-29.56h0c21.99,8.54,62.57,38.77,80.79,20.66,0,0,3.63-3.17,4.13-8.58.73-7.84-4.44-13.59-7.71-15.38-3.86-2.11-10.1-2.16-15.15.87-2.52,1.51-4.28,4.59-4.09,7.99.23,3.99,2.92,7.13,3.63,7.76,7.4,6.53,11.15,3.67,13.13,1.24,1.35-1.66,3.4-6.2-1.06-8.95-.67-.41-1.51-.82-2.46-.98-1.74-.3-3.5.71-4.01,2.4-.13.41-.16.8,0,1.11,1.44,2.88,4.64,2.8,5.78-.55Z"/>
  <path d="M1793.18,26.68h0s.56-12.68,9.04-3.26c5,5.55-.23,10.35-4.09,11.38-1.77.48-11.2-.09-12.67-7.25-1.47-7.16,1.33-10.05,1.33-10.05,0-.06,5.52-8.04,16.34-3.81,9.27,3.63,12.85,14.92,8.63,23.5-4.67,9.5-14.05,8.72-14.05,8.72h-33.51s0,0,0,0c11.84-2.75,10.1-12.62,10.1-12.62l-.28-2.98c-1.19-11.89,7.48-19.51,7.48-19.51,12.16-9.41,28.51-5.14,28.51-5.14,11.5,2.7,26.5,9.34,32.68,12.2,1.25.58,3.06,1.42,4.41,1.66,1.19.21,7.11,1.15,9.04-3.58,1.08-2.65.14-5.37-1.93-6.56-2.18-1.26-4.65-1.24-6.84,0-6.02,3.43,1.29,6.95,1.29,6.95,0,0,0,0,0,0l-8.95-3.56c-5.27-2.1-10.63-3.98-16.05-5.66l-7.83-2.42s0,0,0,0h56.05s-17.02,7.5-5.74,29.56c0,0,0,0,0,0-21.99-8.54-62.57-38.77-80.79-20.66,0,0-3.63,3.17-4.13,8.58-.73,7.84,4.44,13.59,7.71,15.38,3.86,2.11,10.1,2.16,15.15-.87,2.52-1.51,4.28-4.59,4.09-7.99-.23-3.99-2.92-7.13-3.63-7.76-7.4-6.53-11.15-3.67-13.13-1.24-1.35,1.66-3.4,6.2,1.06,8.95.67.41,1.51.82,2.46.98,1.74.3,3.5-.71,4.01-2.4.13-.41.16-.8,0-1.11-1.44-2.88-4.64-2.8-5.78.55Z"/>
  <path d="M1887.05,23.95h0s-.56,12.68-9.04,3.26c-5-5.55.23-10.35,4.09-11.38,1.77-.48,11.2.09,12.67,7.25,1.47,7.16-1.33,10.05-1.33,10.05,0,.06-5.52,8.04-16.34,3.81-9.27-3.63-12.85-14.92-8.63-23.5,4.67-9.5,14.05-8.72,14.05-8.72h33.51s0,0,0,0c-11.84,2.75-10.1,12.62-10.1,12.62l.28,2.98c1.19,11.89-7.48,19.51-7.48,19.51-12.16,9.41-28.51,5.14-28.51,5.14-11.5-2.7-26.5-9.34-32.68-12.2-1.25-.58-3.06-1.42-4.41-1.66-1.19-.21-7.11-1.15-9.04,3.58-1.08,2.65-.14,5.37,1.93,6.56,2.18,1.26,4.65,1.24,6.84,0,6.02-3.43-1.29-6.95-1.29-6.95,0,0,0,0,0,0l8.95,3.56c5.27,2.1,10.63,3.98,16.05,5.66l7.83,2.42s0,0,0,0h-56.05s17.02-7.5,5.74-29.56c0,0,0,0,0,0,21.99,8.54,62.57,38.77,80.79,20.66,0,0,3.63-3.17,4.13-8.58.73-7.84-4.44-13.59-7.71-15.38-3.86-2.11-10.1-2.16-15.15.87-2.52,1.51-4.28,4.59-4.09,7.99.23,3.99,2.92,7.13,3.63,7.76,7.4,6.53,11.15,3.67,13.13,1.24,1.35-1.66,3.4-6.2-1.06-8.95-.67-.41-1.51-.82-2.46-.98-1.74-.3-3.5.71-4.01,2.4-.13.41-.16.8,0,1.11,1.44,2.88,4.64,2.8,5.78-.55Z"/>
  <path d="M1387.22,26.68h0s.56-12.68,9.04-3.26c5,5.55-.23,10.35-4.09,11.38-1.77.48-11.2-.09-12.67-7.25-1.47-7.16,1.33-10.05,1.33-10.05,0-.06,5.52-8.04,16.34-3.81,9.27,3.63,12.85,14.92,8.63,23.5-4.67,9.5-14.05,8.72-14.05,8.72h-33.51s0,0,0,0c11.84-2.75,10.1-12.62,10.1-12.62l-.28-2.98c-1.19-11.89,7.48-19.51,7.48-19.51,12.16-9.41,28.51-5.14,28.51-5.14,11.5,2.7,26.5,9.34,32.68,12.2,1.25.58,3.06,1.42,4.41,1.66,1.19.21,7.11,1.15,9.04-3.58,1.08-2.65.14-5.37-1.93-6.56-2.18-1.26-4.65-1.24-6.84,0-6.02,3.43,1.29,6.95,1.29,6.95,0,0,0,0,0,0l-8.95-3.56c-5.27-2.1-10.63-3.98-16.05-5.66l-7.83-2.42s0,0,0,0h56.05s-17.02,7.5-5.74,29.56h0c-21.99-8.54-62.57-38.77-80.79-20.66,0,0-3.63,3.17-4.13,8.58-.73,7.84,4.44,13.59,7.71,15.38,3.86,2.11,10.1,2.16,15.15-.87,2.52-1.51,4.28-4.59,4.09-7.99-.23-3.99-2.92-7.13-3.63-7.76-7.4-6.53-11.15-3.67-13.13-1.24-1.35,1.66-3.4,6.2,1.06,8.95.67.41,1.51.82,2.46.98,1.74.3,3.5-.71,4.01-2.4.13-.41.16-.8,0-1.11-1.44-2.88-4.64-2.8-5.78.55Z"/>
  <path d="M1481.09,23.95h0s-.56,12.68-9.04,3.26c-5-5.55.23-10.35,4.09-11.38,1.77-.48,11.2.09,12.67,7.25s-1.33,10.05-1.33,10.05c0,.06-5.52,8.04-16.34,3.81-9.27-3.63-12.85-14.92-8.63-23.5,4.67-9.5,14.05-8.72,14.05-8.72h33.51s0,0,0,0c-11.84,2.75-10.1,12.62-10.1,12.62l.28,2.98c1.19,11.89-7.48,19.51-7.48,19.51-12.16,9.41-28.51,5.14-28.51,5.14-11.5-2.7-26.5-9.34-32.68-12.2-1.25-.58-3.06-1.42-4.41-1.66-1.19-.21-7.11-1.15-9.04,3.58-1.08,2.65-.14,5.37,1.93,6.56,2.18,1.26,4.65,1.24,6.84,0,6.02-3.43-1.29-6.95-1.29-6.95,0,0,0,0,0,0l8.95,3.56c5.27,2.1,10.63,3.98,16.05,5.66l7.83,2.42s0,0,0,0h-56.05s17.02-7.5,5.74-29.56h0c21.99,8.54,62.57,38.77,80.79,20.66,0,0,3.63-3.17,4.13-8.58.73-7.84-4.44-13.59-7.71-15.38-3.86-2.11-10.1-2.16-15.15.87-2.52,1.51-4.28,4.59-4.09,7.99.23,3.99,2.92,7.13,3.63,7.76,7.4,6.53,11.15,3.67,13.13,1.24,1.35-1.66,3.4-6.2-1.06-8.95-.67-.41-1.51-.82-2.46-.98-1.74-.3-3.5.71-4.01,2.4-.13.41-.16.8,0,1.11,1.44,2.88,4.64,2.8,5.78-.55Z"/>
  <path d="M1522.54,26.68h0s.56-12.68,9.04-3.26c5,5.55-.23,10.35-4.09,11.38-1.77.48-11.2-.09-12.67-7.25s1.33-10.05,1.33-10.05c0-.06,5.52-8.04,16.34-3.81,9.27,3.63,12.85,14.92,8.63,23.5-4.67,9.5-14.05,8.72-14.05,8.72h-33.51s0,0,0,0c11.84-2.75,10.1-12.62,10.1-12.62l-.28-2.98c-1.19-11.89,7.48-19.51,7.48-19.51,12.16-9.41,28.51-5.14,28.51-5.14,11.5,2.7,26.5,9.34,32.68,12.2,1.25.58,3.06,1.42,4.41,1.66,1.19.21,7.11,1.15,9.04-3.58,1.08-2.65.14-5.37-1.93-6.56-2.18-1.26-4.65-1.24-6.84,0-6.02,3.43,1.29,6.95,1.29,6.95,0,0,0,0,0,0l-8.95-3.56c-5.27-2.1-10.63-3.98-16.05-5.66l-7.83-2.42s0,0,0,0h56.05s-17.02,7.5-5.74,29.56c0,0,0,0,0,0-21.99-8.54-62.57-38.77-80.79-20.66,0,0-3.63,3.17-4.13,8.58-.73,7.84,4.44,13.59,7.71,15.38,3.86,2.11,10.1,2.16,15.15-.87,2.52-1.51,4.28-4.59,4.09-7.99-.23-3.99-2.92-7.13-3.63-7.76-7.4-6.53-11.15-3.67-13.13-1.24-1.35,1.66-3.4,6.2,1.06,8.95.67.41,1.51.82,2.46.98,1.74.3,3.5-.71,4.01-2.4.13-.41.16-.8,0-1.11-1.44-2.88-4.64-2.8-5.78.55Z"/>
  <path d="M1616.41,23.95h0s-.56,12.68-9.04,3.26c-5-5.55.23-10.35,4.09-11.38,1.77-.48,11.2.09,12.67,7.25s-1.33,10.05-1.33,10.05c0,.06-5.52,8.04-16.34,3.81-9.27-3.63-12.85-14.92-8.63-23.5,4.67-9.5,14.05-8.72,14.05-8.72h33.51s0,0,0,0c-11.84,2.75-10.1,12.62-10.1,12.62l.28,2.98c1.19,11.89-7.48,19.51-7.48,19.51-12.16,9.41-28.51,5.14-28.51,5.14-11.5-2.7-26.5-9.34-32.68-12.2-1.25-.58-3.06-1.42-4.41-1.66-1.19-.21-7.11-1.15-9.04,3.58-1.08,2.65-.14,5.37,1.93,6.56,2.18,1.26,4.65,1.24,6.84,0,6.02-3.43-1.29-6.95-1.29-6.95,0,0,0,0,0,0l8.95,3.56c5.27,2.1,10.63,3.98,16.05,5.66l7.83,2.42s0,0,0,0h-56.05s17.02-7.5,5.74-29.56c0,0,0,0,0,0,21.99,8.54,62.57,38.77,80.79,20.66,0,0,3.63-3.17,4.13-8.58.73-7.84-4.44-13.59-7.71-15.38-3.86-2.11-10.1-2.16-15.15.87-2.52,1.51-4.28,4.59-4.09,7.99.23,3.99,2.92,7.13,3.63,7.76,7.4,6.53,11.15,3.67,13.13,1.24,1.35-1.66,3.4-6.2-1.06-8.95-.67-.41-1.51-.82-2.46-.98-1.74-.3-3.5.71-4.01,2.4-.13.41-.16.8,0,1.11,1.44,2.88,4.64,2.8,5.78-.55Z"/>
  <path d="M12.13,32.76c-.76-3.3-.27-6.45-.08-8.86.25-3.23,1.31-6.34,3.04-9.09,1.65-2.61,3.09-4.41,6.04-7.24.52-.5,1.07-.97,1.64-1.41l2.28-1.54.1-.06c-.46,0-.92.02-1.38.05l-18.53-.05v38.81c4.49-1.2,8-5.82,6.89-10.62Z"/>
  <path d="M1908.74,17.41c.76,3.3.27,6.45.08,8.86-.25,3.23-1.31,6.34-3.04,9.09-1.65,2.61-3.09,4.41-6.04,7.24-.52.5-1.07.97-1.64,1.41l-2.28,1.54-.1.06c.46,0,.92-.02,1.38-.05l18.53.05V6.79c-4.49,1.2-8,5.82-6.89,10.62Z"/>
</svg>