<?xml version="1.0" encoding="UTF-8"?>
<svg id="Calque_1" data-name="Calque 1" xmlns="http://www.w3.org/2000/svg" viewBox="0 0 512 512">
  <path d="M408.14,169.22l-65.48-60.92-113.6-30.79L77.6,224.39l9.8,29.83-11.43,21.34,139.3,154.39,156.37-12.73,30.78-49.19-16.76-78.4,22.49-120.4ZM304.59,362.65,126.04,255.32l89.16-114.21,81.77,6.53,65.63,42.13-21.76,108.48,10.57,35-21.91,28.5-121.25,7.8-82.21-114.21Z"/>
  <path d="M268.25,202.32l-43.28-5.72-56.34,47.36,35.93,64.51,92.47,11.08,22.66-98.45-51.44-18.78ZM274.24,242.88l-5.68-30.05,42.42,14.26-7.89,22.05-28.85-6.26Z"/>
</svg>