<?xml version="1.0" encoding="UTF-8"?>
<svg id="Calque_1" data-name="Calque 1" xmlns="http://www.w3.org/2000/svg" viewBox="0 0 512 512">
  <defs>
    <style>
      .cls-1 {
        fill: #fff;
      }
    </style>
  </defs>
  <g>
    <polygon points="127.83 294.86 139.42 319.52 154.14 316.15 155.52 305.62 180.8 293.37 189.43 306.75 172.19 315.47 171.69 338.58 147.44 338.16 135.38 358.89 120.59 350.72 121.52 339.63 110.68 305.66 80.62 276.33 75.54 238.22 41.16 211 72.85 199.28 95.07 228.69 98.09 263.31 127.83 294.86"/>
    <polygon points="88.66 193.02 115.51 181.77 155.2 175.42 158.45 189.15 121.31 204.83 132.97 233.53 165.47 219.17 165.34 249.52 140.6 252.27 148.58 277.71 170.62 269.91 176.89 283.44 149.05 296.17 135 289.42 117.25 257.45 111.11 222.45 88.66 193.02 88.66 193.02"/>
    <polygon points="206.17 280.25 222.74 275.86 222.21 254.17 213.32 227.18 221.26 200.5 200.4 149.94 228.86 152.94 239.68 199.23 227.98 226.47 238.56 268.2 235.85 286.49 207.33 294.67 198.12 303.41 179.7 265.02 178.88 206.89 169.54 183.5 164.92 169.25 178.39 157.47 186.05 177.89 195.48 201.6 196.01 265.02 206.17 280.25"/>
    <g>
      <path d="M397.1,183.06l-21.95-20.42-38.08-10.32-50.77,49.24,3.28,10-3.83,7.15,46.7,51.76,52.42-4.27,10.32-16.49-5.62-26.28,7.54-40.36ZM362.39,247.91,302.53,211.93l29.89-38.29,27.41,2.19,22,14.12-7.3,36.37,3.54,11.73-7.34,9.55-40.65,2.61-27.56-38.29Z"/>
      <path d="M350.2,194.16l-14.51-1.92-18.89,15.88,12.04,21.62,31,3.71,7.6-33-17.25-6.3ZM352.21,207.76l-1.9-10.07,14.22,4.78-2.65,7.39-9.67-2.1Z"/>
    </g>
    <polygon points="423.68 242.51 416.54 222.35 424.26 202.13 441.05 207.24 434.5 225.36 446.07 246.48 463.3 199.48 445.42 191.9 423.95 182.81 393.59 169.95 406.61 183.28 404.51 200.74 401.39 226.67 406.18 247.91 414.9 262.32 390.34 281.89 381.89 303.41 377.81 283.16 362.39 281.37 335.9 285.23 323.65 280.55 302.53 282.69 329.2 306.19 346.51 299.04 365.51 301.53 340.53 337.1 363.64 331.32 364.53 358.87 388.59 331.43 399.87 310.2 419.4 287.61 437.62 260.53 423.68 242.51"/>
  </g>
  <path d="M273.6,273.37l-9.5-21.81-1.8-17.84,14.5,22.18,19.05,19.48,22.97-.53-33.93-34.09-14.26-24.5,5.29-9.16-5.58-14.54,56.71-41.99-30.22-1.38-28.92,25.68,2.22-30.02-28.87,8.08,11.44,44.75-11.23,31.01,4.38,23.04,6.73,27.14M285.07,275.89"/>
  <g>
    <path d="M182.52,357.88l4.72,8.39,8.21,8.04,92.77-14.23,14.79,5.3-54.41,8.93h87.44l-41.82-27.29-77.59,11.16,49.49-11.02,33.13-7.3,48.22,34.51.11-3.88,9.31,3.81v-34.92l-9.21,18.26-48.06-35.67-31.17,8.77.79-5.04,19.36-28.33,29.98,27.54,2.76-1.48,4.96,9.76,27.55-26.68-26.49,10.69-41.77-41.31-28.31,41.2s-6.51,1.48-50.95,7.57l49.42-14.56,18.37-36.73-9.5-21.81-1.71-16.93,13.66,20.9,19.29,19.83,23.49-.51-33.93-34.09-14.26-24.5,5.29-9.16-5.58-14.54,56.71-41.99-30.74-1.4-28.92,25.68-15.21,22.81-11.23,31.01,4.25,22.34,6.87,27.84-5.49,14.1-67.55,30.32-2.72,10.91,1.91,10.39"/>
    <g>
      <polygon points="143.02 362.95 164.16 373.08 182.57 357.48 178.96 345.46 155.06 343.34 143.02 362.95"/>
      <path class="cls-1" d="M161.83,365.15c-.02-.45-.36-1.63-.86-3.19.04,0,.09,0,.13,0,.72-.13,1.2-.83,1.07-1.56s-.83-1.22-1.55-1.09c-.18.03-.34.1-.48.19-1.01-2.91-2.26-6.29-3.14-8.65.01-.03.02-.05.02-.05,8.91,5.54,5.08,13.8,4.81,14.35Z"/>
    </g>
  </g>
</svg>